@startuml
state Sumobot {
    [*] --> Init
    Init --> Standby : start button
    Standby : on entry / start timer(5000 ms)
    Standby --> Idle : timer expires
    Idle : spin in place
    Idle --> L_Turn : Left prox
    Idle --> R_Turn : Right prox
    L_Turn : on entry / start left-forward turn
    R_Turn : on entry / start right-forward turn
    L_Turn -> R_Turn : Right
    R_Turn -> L_Turn : Left
    L_Turn --> Idle : None
    R_Turn --> Idle : None
    L_Turn --> Attacking : Ahead
    R_Turn --> Attacking : Ahead
    Attacking : on entry / speed forward
    Attacking -> Reversing : Edge
    L_Turn -> Reversing : Edge
    R_Turn -> Reversing : Edge
}
@enduml
